<svg height="512pt" viewBox="-32 0 512 512" width="512pt" xmlns="http://www.w3.org/2000/svg"><path d="m438.121094 222.878906-9.304688-1.410156c-.410156-5.621094-4.730468-10.445312-10.621094-11.339844l-12.542968-1.898437c-.617188-.09375-1.246094-.140625-1.871094-.140625-4.265625 0-8.128906 2.214844-10.398438 5.601562l-56.648437-8.582031-15.640625-21.222656c-1.945312-21.695313-20.277344-38.753907-42.539062-38.753907h-4.449219c7.757812-7.496093 13.40625-17.117187 16.007812-27.894531h.742188c10.601562 0 19.226562-8.574219 19.226562-19.113281v-10.097656c0-6.019532-2.820312-11.390625-7.210937-14.894532v-38.769531c0-18.949219-15.535156-34.363281-34.628906-34.363281h-92.089844c-6.628906 0-12.019532 5.371094-12.019532 11.976562v61.15625c-4.390624 3.503907-7.210937 8.875-7.210937 14.894532v10.097656c0 10.539062 8.625 19.113281 19.222656 19.113281h.726563c2.324218 9.632813 7.085937 18.339844 13.609375 25.433594v2.460937h-2.03125c-22.261719 0-40.59375 17.058594-42.542969 38.75l-15.640625 21.226563-56.648437 8.582031c-2.265626-3.386718-6.132813-5.601562-10.398438-5.601562-.625 0-1.253906.046875-1.871094.140625l-12.546875 1.898437c-5.886719.894532-10.207031 5.71875-10.617187 11.339844l-9.304688 1.410156c-3.292968.5-6.203125 2.253906-8.183594 4.945313-1.984374 2.691406-2.800781 5.988281-2.300781 9.285156l2.5625 16.917969c.917969 6.0625 6.230469 10.628906 12.359375 10.628906.625 0 1.253906-.046875 1.871094-.140625l28.230469-4.277344 77.082031-11.679687.566406-.105469c1.539063-.355469 3.101563-.839844 4.65625-1.429687v12.128906h-34.535156c-6.890625 0-12.5 5.609375-12.5 12.5v41.691406c0 6.894531 5.609375 12.5 12.5 12.5h18.691406v171.15625h-19.394531c-4.140625 0-7.5 3.355469-7.5 7.5s3.359375 7.5 7.5 7.5h246.03125c4.140625 0 7.5-3.355469 7.5-7.5s-3.359375-7.5-7.5-7.5h-19.394531v-16c0-4.144531-3.355469-7.5-7.5-7.5-4.140625 0-7.5 3.355469-7.5 7.5v16h-177.242188v-171.152344h123.496094c4.140625 0 7.5-3.359375 7.5-7.5 0-4.144531-3.359375-7.5-7.5-7.5h-154.6875v-36.691406h239.621094v36.691406h-46.933594c-4.144531 0-7.5 3.355469-7.5 7.5 0 4.140625 3.355469 7.5 7.5 7.5h15.746094v119.152344c0 4.144531 3.359375 7.5 7.5 7.5 4.144531 0 7.5-3.355469 7.5-7.5v-119.152344h18.691406c6.890625 0 12.5-5.609375 12.5-12.5v-41.691406c0-6.894531-5.609375-12.5-12.5-12.5h-34.535156v-12.132812c1.558594.589843 3.117187 1.074218 4.65625 1.429687l71.945312 10.921875c.007813 0 .015625.003906.023438.003906l4.457031.675782 1.222656.183593 28.230469 4.277344c.617188.09375 1.246094.140625 1.871094.140625 6.128906 0 11.441406-4.566406 12.359375-10.625l2.5625-16.921875c1.035156-6.8125-3.667969-13.199219-10.484375-14.230469zm-143.042969-124.753906c0 1.980469-1.441406 3.632812-3.355469 4.023438v-18.140626c1.914063.390626 3.355469 2.042969 3.355469 4.019532zm-123.15625 0v-10.097656c0-1.976563 1.441406-3.632813 3.355469-4.019532v18.140626c-1.914063-.390626-3.355469-2.042969-3.355469-4.023438zm7.207031-57.914062v-25.210938h89.109375c10.824219 0 19.628907 8.6875 19.628907 19.363281v5.847657c-1.769532-1.425782-4.015626-2.28125-6.460938-2.28125h-95.816406c-2.445313 0-4.691406.855468-6.460938 2.28125zm11.148438 63.609374v-50.890624h86.445312v50.890624c0 23.5625-19.390625 42.730469-43.222656 42.730469-23.832031-.003906-43.222656-19.171875-43.222656-42.730469zm68.785156 51.851563v8.03125l-7.160156-5.128906c2.464844-.8125 4.855468-1.78125 7.160156-2.902344zm-45.632812 2.339844-7.953126 5.695312v-9.304687c2.542969 1.390625 5.195313 2.601562 7.953126 3.609375zm-179.832032 79.324219 9.007813-1.367188c5.886719-.890625 10.207031-5.714844 10.617187-11.335938l7.898438-1.199218 3.257812 21.488281-28.964844 4.386719zm104.347656-3.558594-58.738281 8.898437-2.171875-14.328125 56.710938-8.59375.648437-.097656.621094-.210938c2.09375-.703124 4.882813-2.539062 6.355469-4.179687l.242187-.269531 4.113281-5.582032v20.910157c-2.550781 1.59375-5.273437 2.832031-7.78125 3.453125zm67.054688 25.375v-36.652344c0-5.800781 3.578125-10.675781 8.40625-12.078125 3.234375 8.789063 11.695312 15.078125 21.59375 15.078125 12.683594 0 23-10.316406 23-23s-10.316406-23-23-23c-10.128906 0-18.742188 6.582031-21.804688 15.691406-13.039062 1.589844-23.195312 13.226563-23.195312 27.308594v36.652344h-29.277344v-71.441406c0-15.207032 12.4375-27.578126 27.722656-27.578126h2.03125v13.171876c0 5.910156 4.097657 10.367187 9.53125 10.367187 2.195313 0 4.40625-.753906 6.402344-2.183594l25.859375-18.523437 25.863281 18.523437c1.992188 1.429688 4.207032 2.183594 6.402344 2.183594 5.433594 0 9.527344-4.457031 9.527344-10.367187v-13.171876h4.488281c15.285157 0 27.722657 12.371094 27.722657 27.578126v71.441406zm22-56.652344c0-4.410156 3.589844-8 8-8s8 3.589844 8 8-3.589844 8-8 8-8-3.589844-8-8zm94.273438 27.828125v-20.910156l3.898437 5.289062.460937.566407c1.46875 1.636718 4.257813 3.46875 6.347657 4.175781l.621093.207031 57.363282 8.691406-2.171875 14.328125-58.738281-8.898437c-2.507813-.621094-5.234376-1.859375-7.78125-3.449219zm110.316406 18.980469-28.964844-4.386719 3.253906-21.488281 7.898438 1.199218c.410156 5.621094 4.730468 10.445313 10.621094 11.335938l9.003906 1.367188zm0 0"/><path d="m233.5 100.5h4.769531c4.144531 0 7.5-3.355469 7.5-7.5s-3.355469-7.5-7.5-7.5h-2.042969v-9.160156c0-4.140625-3.355468-7.5-7.5-7.5-4.140624 0-7.5 3.359375-7.5 7.5v11.660156c0 6.894531 5.507813 12.5 12.273438 12.5zm0 0"/><path d="m215.5625 85.199219v-11.203125c0-4.140625-3.359375-7.5-7.5-7.5-4.144531 0-7.5 3.359375-7.5 7.5v11.203125c0 4.140625 3.355469 7.5 7.5 7.5 4.140625 0 7.5-3.359375 7.5-7.5zm0 0"/><path d="m258.9375 92.699219c4.144531 0 7.5-3.359375 7.5-7.5v-11.203125c0-4.140625-3.355469-7.5-7.5-7.5-4.140625 0-7.5 3.359375-7.5 7.5v11.203125c0 4.140625 3.359375 7.5 7.5 7.5zm0 0"/><path d="m205.476562 114.574219c0 14.773437 12.019532 26.792969 26.792969 26.792969 14.777344 0 26.796875-12.019532 26.796875-26.792969 0-6.105469-4.96875-11.074219-11.074218-11.074219h-31.441407c-6.109375 0-11.074219 4.96875-11.074219 11.074219zm37.917969 3.925781c-1.621093 4.578125-5.996093 7.867188-11.125 7.867188-5.125 0-9.5-3.289063-11.121093-7.867188zm0 0"/><path d="m89.875 96.363281c0-4.144531-3.359375-7.5-7.5-7.5h-67.375v-65.363281h115.355469v17.582031c0 5.40625 3.398437 11.289063 8.082031 13.992188l3.597656 2.078125-3.597656 2.078125c-4.683594 2.703125-8.082031 8.589843-8.082031 13.996093v15.636719h-11.980469c-4.144531 0-7.5 3.355469-7.5 7.5s3.355469 7.5 7.5 7.5h14.480469c6.894531 0 12.5-5.605469 12.5-12.5v-18.035156c.074219-.332031.417969-.925781.671875-1.15625l10.429687-6.023437c3.46875-2 5.535157-5.363282 5.535157-8.992188 0-3.632812-2.066407-6.996094-5.535157-8.996094l-10.429687-6.023437c-.25-.226563-.59375-.824219-.667969-1.15625v-19.980469c0-6.894531-5.609375-12.5-12.5-12.5h-120.359375c-6.894531 0-12.5 5.605469-12.5 12.5v70.363281c0 6.894531 5.605469 12.5 12.5 12.5h69.875c4.140625 0 7.5-3.355469 7.5-7.5zm0 0"/><path d="m30.832031 44.5h81.667969c4.140625 0 7.5-3.355469 7.5-7.5s-3.359375-7.5-7.5-7.5h-81.667969c-4.140625 0-7.5 3.355469-7.5 7.5s3.359375 7.5 7.5 7.5zm0 0"/><path d="m120 56c0-4.144531-3.359375-7.5-7.5-7.5h-81.667969c-4.140625 0-7.5 3.355469-7.5 7.5s3.359375 7.5 7.5 7.5h81.667969c4.140625 0 7.5-3.355469 7.5-7.5zm0 0"/><path d="m30.832031 67.5c-4.140625 0-7.5 3.355469-7.5 7.5s3.359375 7.5 7.5 7.5h46.824219c4.140625 0 7.5-3.355469 7.5-7.5s-3.359375-7.5-7.5-7.5zm0 0"/><path d="m265.472656 350.5c-9.5625 0-18.558594 3.710938-25.324218 10.453125l-6.648438 6.621094-6.648438-6.621094c-6.765624-6.742187-15.761718-10.453125-25.324218-10.453125-9.566406 0-18.5625 3.710938-25.332032 10.453125-6.765624 6.742187-10.492187 15.71875-10.492187 25.273437.003906 9.554688 3.730469 18.527344 10.496094 25.269532l47.964843 47.78125c2.496094 2.484375 5.8125 3.851562 9.335938 3.851562 3.53125 0 6.851562-1.371094 9.339844-3.859375l47.964844-47.773437c6.765624-6.738282 10.488281-15.714844 10.492187-25.269532 0-9.554687-3.726563-18.53125-10.496094-25.277343-6.769531-6.738281-15.765625-10.449219-25.328125-10.449219zm14.742188 50.367188-46.71875 46.535156-46.714844-46.535156c-3.917969-3.902344-6.078125-9.101563-6.078125-14.640626 0-5.539062 2.160156-10.742187 6.078125-14.648437 3.9375-3.917969 9.171875-6.078125 14.746094-6.078125 5.570312 0 10.804687 2.160156 14.738281 6.078125l11.9375 11.894531c2.929687 2.917969 7.664063 2.917969 10.589844.003906l11.941406-11.898437c3.933594-3.917969 9.167969-6.078125 14.738281-6.078125 5.570313 0 10.808594 2.160156 14.742188 6.078125 3.921875 3.90625 6.078125 9.109375 6.078125 14.648437.003906 5.539063-2.15625 10.738282-6.078125 14.640626zm0 0"/><path d="m217.820312 397.164062v-9.503906c0-4.144531-3.355468-7.5-7.5-7.5-4.140624 0-7.5 3.355469-7.5 7.5v9.503906c0 4.144532 3.359376 7.5 7.5 7.5 4.144532 0 7.5-3.355468 7.5-7.5zm0 0"/><path d="m256.675781 380.160156c-4.140625 0-7.5 3.355469-7.5 7.5v9.503906c0 4.144532 3.359375 7.5 7.5 7.5 4.144531 0 7.5-3.355468 7.5-7.5v-9.503906c0-4.140625-3.355469-7.5-7.5-7.5zm0 0"/><path d="m244.40625 405.796875c-4.140625 0-7.5 3.355469-7.5 7.5 0 1.855469-1.527344 3.363281-3.40625 3.363281s-3.40625-1.507812-3.40625-3.363281c0-4.144531-3.355469-7.5-7.5-7.5-4.140625 0-7.5 3.355469-7.5 7.5 0 10.125 8.257812 18.363281 18.40625 18.363281s18.40625-8.238281 18.40625-18.363281c0-4.144531-3.355469-7.5-7.5-7.5zm0 0"/></svg>